<svg id="Capa_1" data-name="Capa 1" xmlns="http://www.w3.org/2000/svg" viewBox="0 0 800 800"><defs><style>.cls-1{fill:#0092cb;}.cls-2{fill:#eee;}</style></defs><path class="cls-1" d="M315.79,478.23v14.08h6.87v1.95h-9v-16Z"/><path class="cls-1" d="M349.4,494.26h-2.15l-1-3.73H341l-1,3.73h-2.18l4.54-16h2.49Zm-5.81-13.6-2.06,7.92h4.23l-2.08-7.92Z"/><path class="cls-1" d="M364.61,494.26v-16h5.29a4.77,4.77,0,0,1,3.52,1.28,4.35,4.35,0,0,1,1.26,3.21,3.46,3.46,0,0,1-2,3.41,3.54,3.54,0,0,1,2.32,3.64,4.35,4.35,0,0,1-1.26,3.21,4.79,4.79,0,0,1-3.53,1.28Zm5.29-14.08h-3.16v5.1h3.16a2.87,2.87,0,0,0,2.09-.7,2.72,2.72,0,0,0,0-3.69A2.83,2.83,0,0,0,369.9,480.18Zm-3.16,7.05v5.08h3.5a2.88,2.88,0,0,0,2.1-.7,2.71,2.71,0,0,0,0-3.68,2.88,2.88,0,0,0-2.1-.7Z"/><path class="cls-1" d="M399.39,478.23v1.95h-7v5.1h5.75v2h-5.75v5.08h7v1.95h-9.16v-16Z"/><path class="cls-1" d="M417.5,478.23v14.08h6.87v1.95h-9v-16Z"/><path class="cls-1" d="M448.51,482.72v.89l-2.11.25v-1c0-2-1-2.93-3-2.93s-3,.94-3,2.81a2.13,2.13,0,0,0,1.48,1.9,8.7,8.7,0,0,0,1.47.55l1.62.53a5.41,5.41,0,0,1,2.59,1.55,3.63,3.63,0,0,1,.92,2.48,4.59,4.59,0,0,1-1.35,3.46,5.15,5.15,0,0,1-3.73,1.3,5.24,5.24,0,0,1-3.76-1.3,4.53,4.53,0,0,1-1.37-3.46v-.89l2.13-.14v.89q0,2.91,3,2.91t3-2.82c0-.8-.53-1.45-1.58-1.94a17.74,17.74,0,0,0-2-.71l-1-.32a6.07,6.07,0,0,1-2.65-1.58,3.61,3.61,0,0,1-.87-2.45,4.56,4.56,0,0,1,1.36-3.46,6,6,0,0,1,7.49,0A4.59,4.59,0,0,1,448.51,482.72Z"/><path class="cls-1" d="M488.05,485.28h7.06v2h-1.72v2.54a4.37,4.37,0,0,1-1.37,3.4,5.48,5.48,0,0,1-3.81,1.25,5.67,5.67,0,0,1-3.89-1.26,4.07,4.07,0,0,1-1.44-3.25,4.51,4.51,0,0,1,.59-2.31,3.45,3.45,0,0,1,1.72-1.47,3.12,3.12,0,0,1-1.46-1.41,4.45,4.45,0,0,1-.51-2.14,4.27,4.27,0,0,1,1.35-3.23,6.15,6.15,0,0,1,7.47,0,4.41,4.41,0,0,1,1.35,3.36v.18l-2,.23v-.41a2.49,2.49,0,0,0-.78-1.93,3.31,3.31,0,0,0-2.29-.71,3.42,3.42,0,0,0-2.33.71,2.44,2.44,0,0,0-.79,1.88,2.54,2.54,0,0,0,.73,1.9A2.85,2.85,0,0,0,488.05,485.28Zm3.35,4.49v-2.54h-3.69a2.92,2.92,0,0,0-2.12.71,2.52,2.52,0,0,0-.72,1.88,2.36,2.36,0,0,0,.85,1.89,3.56,3.56,0,0,0,2.38.72,3.66,3.66,0,0,0,2.43-.74A2.38,2.38,0,0,0,491.4,489.77Z"/><path class="cls-1" d="M529.45,494.26v-16h5.29a4.78,4.78,0,0,1,3.53,1.28,4.35,4.35,0,0,1,1.26,3.21,3.47,3.47,0,0,1-2,3.41,3.54,3.54,0,0,1,2.31,3.64,4.35,4.35,0,0,1-1.26,3.21,4.77,4.77,0,0,1-3.52,1.28Zm5.29-14.08h-3.16v5.1h3.16a2.88,2.88,0,0,0,2.1-.7,2.72,2.72,0,0,0,0-3.69A2.84,2.84,0,0,0,534.74,480.18Zm-3.16,7.05v5.08h3.51a2.87,2.87,0,0,0,2.09-.7,2.71,2.71,0,0,0,0-3.68,2.87,2.87,0,0,0-2.09-.7Z"/><path class="cls-1" d="M565.29,483v1.67a4.28,4.28,0,0,1-1.83,3.78,4.38,4.38,0,0,1,1.83,3.8v2h-2.11v-1.9a2.93,2.93,0,0,0-.76-2.15,3.17,3.17,0,0,0-2.35-.78h-2.86v4.83h-2.13v-16h5a5.35,5.35,0,0,1,3.85,1.33A4.57,4.57,0,0,1,565.29,483Zm-8.08-2.81v7.3h2.86a3.17,3.17,0,0,0,2.35-.78,2.93,2.93,0,0,0,.76-2.15v-1.44a3,3,0,0,0-.76-2.16,3.21,3.21,0,0,0-2.35-.77Z"/><path class="cls-1" d="M592,494.26h-2.16l-1-3.73h-5.27l-1,3.73h-2.18l4.54-16h2.49Zm-5.82-13.6-2.06,7.92h4.24l-2.09-7.92Z"/><path class="cls-1" d="M615.42,490.32V478.23h2.12v16h-2.22l-6-12.09v12.09h-2.13v-16h2.22Z"/><path class="cls-1" d="M633.55,478.23h5a5.33,5.33,0,0,1,3.85,1.33,4.54,4.54,0,0,1,1.38,3.43v6.51a4.54,4.54,0,0,1-1.38,3.43,5.33,5.33,0,0,1-3.85,1.33h-5Zm8.11,11.17v-6.29a3,3,0,0,0-.77-2.16,3.2,3.2,0,0,0-2.35-.77h-2.86v12.13h2.86a3.16,3.16,0,0,0,2.35-.78A2.88,2.88,0,0,0,641.66,489.4Z"/><path class="cls-1" d="M669.59,482.72v.89l-2.1.25v-1c0-2-1-2.93-3-2.93s-3,.94-3,2.81a2.14,2.14,0,0,0,1.49,1.9,8.24,8.24,0,0,0,1.46.55l1.63.53a5.46,5.46,0,0,1,2.59,1.55,3.62,3.62,0,0,1,.91,2.48,4.59,4.59,0,0,1-1.35,3.46,5.13,5.13,0,0,1-3.73,1.3,5.24,5.24,0,0,1-3.76-1.3,4.56,4.56,0,0,1-1.37-3.46v-.89l2.13-.14v.89q0,2.91,3,2.91c2,0,3-.94,3-2.82,0-.8-.53-1.45-1.58-1.94a18.06,18.06,0,0,0-2-.71l-1-.32a6.12,6.12,0,0,1-2.66-1.58,3.71,3.71,0,0,1-.87-2.45,4.56,4.56,0,0,1,1.36-3.46,6,6,0,0,1,7.49,0A4.56,4.56,0,0,1,669.59,482.72Z"/><path class="cls-2" d="M253.58,351.89h13.19v99.3H253.58Z"/><path class="cls-2" d="M337.13,426.79v-74.9h13.19v99.3H336.56l-36.88-74.9v74.9H286.49v-99.3h13.76Z"/><path class="cls-2" d="M370,351.89H401q15.18,0,23.84,8.23,8.51,8.24,8.51,21.28v40.29q0,13.05-8.51,21.28T401,451.19H370Zm50.22,69.23v-39q0-8.52-4.75-13.34T401,364H383.23v75.18H401q9.8,0,14.55-4.82T420.26,421.12Z"/><path class="cls-2" d="M504.94,351.89V364H461.39v31.64H497v12.05H461.39v43.55H448.2v-99.3Z"/><path class="cls-2" d="M537.71,351.89v87.24h42.56v12.06H524.52v-99.3Z"/><path class="cls-2" d="M656.73,351.89V364H613.18v31.64h35.6v12.05h-35.6v31.49h43.55v12.06H600v-99.3Z"/><path class="cls-2" d="M727.37,351.89h13.9l-26.52,49.94,26.52,49.36h-13.9l-20.43-39.43h-.56L686,451.19h-13.9l26.53-49.36-26.53-49.94H686l20.43,39.44h.56Z"/><polygon class="cls-1" points="110.21 364.24 219.09 364.24 219.09 426.09 172.93 426.09 172.93 474 110.21 474 110.21 364.24"/><polygon class="cls-1" points="163.95 305.47 58.73 333.46 86.94 439.53 97.19 436.8 97.19 351.54 176.21 351.54 163.95 305.47"/><polygon class="cls-1" points="185.99 439.15 219.09 439.15 185.12 473.13 185.99 439.15"/></svg>